<?xml version="1.0" encoding="utf-8"?>
<!-- Generator: Adobe Illustrator 23.0.6, SVG Export Plug-In . SVG Version: 6.00 Build 0)  -->
<svg version="1.1" xmlns="http://www.w3.org/2000/svg" xmlns:xlink="http://www.w3.org/1999/xlink" x="0px" y="0px"
	 viewBox="0 0 500 500" style="enable-background:new 0 0 500 500;" xml:space="preserve">
<style type="text/css">
	.st0{fill:url(#SVGID_1_);}
	.st1{fill:url(#SVGID_2_);}
	.st2{fill:url(#SVGID_3_);}
	.st3{fill:url(#SVGID_4_);}
	.st4{fill:url(#SVGID_5_);}
	.st5{opacity:0.8;fill:#8FCDF4;}
	.st6{opacity:0.9;fill:#4298E1;}
	.st7{fill:#FFFFFF;}
	.st8{fill:none;stroke:#000000;stroke-miterlimit:10;}
	.st9{fill:#2E3D47;}
	.st10{fill:#F5F8FA;}
	.st11{fill:#B4D6EC;}
	.st12{fill:#223882;}
	.st13{fill:#2A608E;}
	.st14{fill:#121E5B;}
	.st15{fill:#223682;}
	.st16{fill:#FFFFFF;stroke:#000000;stroke-miterlimit:10;}
</style>
<g id="Circle">
	<linearGradient id="SVGID_1_" gradientUnits="userSpaceOnUse" x1="272.9408" y1="463.7885" x2="220.6208" y2="-10.1051">
		<stop  offset="0.1138" style="stop-color:#8FCDF4"/>
		<stop  offset="0.136" style="stop-color:#89C9F2"/>
		<stop  offset="0.2452" style="stop-color:#6FB7EC"/>
		<stop  offset="0.3663" style="stop-color:#5BA9E7"/>
		<stop  offset="0.5037" style="stop-color:#4D9FE4"/>
		<stop  offset="0.6715" style="stop-color:#449AE2"/>
		<stop  offset="0.956" style="stop-color:#4298E1"/>
	</linearGradient>
	<circle class="st0" cx="250" cy="256" r="202"/>
	<linearGradient id="SVGID_2_" gradientUnits="userSpaceOnUse" x1="459.0221" y1="198.2579" x2="456.691" y2="177.1438">
		<stop  offset="0.1138" style="stop-color:#8FCDF4"/>
		<stop  offset="0.136" style="stop-color:#89C9F2"/>
		<stop  offset="0.2452" style="stop-color:#6FB7EC"/>
		<stop  offset="0.3663" style="stop-color:#5BA9E7"/>
		<stop  offset="0.5037" style="stop-color:#4D9FE4"/>
		<stop  offset="0.6715" style="stop-color:#449AE2"/>
		<stop  offset="0.956" style="stop-color:#4298E1"/>
	</linearGradient>
	<circle class="st1" cx="458" cy="189" r="9"/>
	<linearGradient id="SVGID_3_" gradientUnits="userSpaceOnUse" x1="27.1467" y1="238.4155" x2="23.3911" y2="204.3984">
		<stop  offset="0.1138" style="stop-color:#8FCDF4"/>
		<stop  offset="0.136" style="stop-color:#89C9F2"/>
		<stop  offset="0.2452" style="stop-color:#6FB7EC"/>
		<stop  offset="0.3663" style="stop-color:#5BA9E7"/>
		<stop  offset="0.5037" style="stop-color:#4D9FE4"/>
		<stop  offset="0.6715" style="stop-color:#449AE2"/>
		<stop  offset="0.956" style="stop-color:#4298E1"/>
	</linearGradient>
	<circle class="st2" cx="25.5" cy="223.5" r="14.5"/>
	<linearGradient id="SVGID_4_" gradientUnits="userSpaceOnUse" x1="437.1246" y1="145.1576" x2="435.7001" y2="132.2546">
		<stop  offset="0.1138" style="stop-color:#8FCDF4"/>
		<stop  offset="0.136" style="stop-color:#89C9F2"/>
		<stop  offset="0.2452" style="stop-color:#6FB7EC"/>
		<stop  offset="0.3663" style="stop-color:#5BA9E7"/>
		<stop  offset="0.5037" style="stop-color:#4D9FE4"/>
		<stop  offset="0.6715" style="stop-color:#449AE2"/>
		<stop  offset="0.956" style="stop-color:#4298E1"/>
	</linearGradient>
	<circle class="st3" cx="436.5" cy="139.5" r="5.5"/>
	<linearGradient id="SVGID_5_" gradientUnits="userSpaceOnUse" x1="42.2382" y1="318.1863" x2="40.5546" y2="302.9372">
		<stop  offset="0.1138" style="stop-color:#8FCDF4"/>
		<stop  offset="0.136" style="stop-color:#89C9F2"/>
		<stop  offset="0.2452" style="stop-color:#6FB7EC"/>
		<stop  offset="0.3663" style="stop-color:#5BA9E7"/>
		<stop  offset="0.5037" style="stop-color:#4D9FE4"/>
		<stop  offset="0.6715" style="stop-color:#449AE2"/>
		<stop  offset="0.956" style="stop-color:#4298E1"/>
	</linearGradient>
	<circle class="st4" cx="41.5" cy="311.5" r="6.5"/>
</g>
<g id="Mountains">
	<polygon class="st5" points="81,365 195,284 256,325 304,284 417,363 	"/>
	<polygon class="st6" points="68,325 126,292 203,333 253,303 312,344 376,292 427,344 177,355 	"/>
</g>
<g id="Rocket">
	<path class="st7" d="M451.5,289.5c-42-3-57.23,25-62,31.5c-5.5,7.5-18.5,5.5-23.5,2.5c-18.14-13.57-29.71-3.77-35,2
		c-14.82,16.17-35,0-35,0c-41-15.5-37-126-37-137s-3.5-120-3.5-120h-2c0,0-0.5,109-0.5,120s-1,119.5-39.5,137c0,0-20.18,16.17-35,0
		c-5.29-5.77-16.86-15.57-35-2c-5,3-18,5-23.5-2.5c-4.77-6.5-24.5-38.5-72-30l18.5,86.5h365L451.5,289.5z"/>
	<path class="st8" d="M37.5,283.5"/>
	<polygon class="st9" points="254.5,31 249,76 254.5,72 260,76 	"/>
</g>
<g id="Circle_Details">
	<circle class="st10" cx="188" cy="94" r="2"/>
	<circle class="st10" cx="215" cy="126" r="2"/>
	<circle class="st10" cx="157" cy="131" r="2"/>
	<circle class="st10" cx="295" cy="123" r="2"/>
	<circle class="st10" cx="323" cy="89" r="2"/>
	<circle class="st10" cx="150" cy="99" r="4"/>
	<circle class="st10" cx="340" cy="116" r="4"/>
	<circle class="st10" cx="399" cy="285" r="7"/>
	<path class="st10" d="M199.75,239.87c-8.73-0.13-15.75-7.24-15.75-15.99c0-8.76,7.02-15.87,15.75-16
		c-6.81,2.13-10.75,8.6-10.75,16.12C189,231.51,192.94,237.74,199.75,239.87z"/>
</g>
<g id="Landscape">
	<circle class="st11" cx="108" cy="372" r="15"/>
	<circle class="st11" cx="159" cy="372" r="26"/>
	<circle class="st11" cx="243" cy="371" r="19"/>
	<circle class="st11" cx="269" cy="372" r="10"/>
	<circle class="st11" cx="364.26" cy="371.5" r="19.5"/>
	<circle class="st11" cx="341.68" cy="372.37" r="8.68"/>
	<circle class="st11" cx="404.26" cy="372.01" r="8.68"/>
	<path class="st12" d="M414.69,373c-36.62,51.44-96.73,85-164.69,85s-128.07-33.56-164.69-85H414.69z"/>
	<path class="st13" d="M177.15,421.65l5.2-0.75c-0.41-2.85-3.1-4.86-5.95-4.45c-2.85,0.41-4.86,3.1-4.45,5.95L177.15,421.65z"/>
	<path class="st13" d="M244.36,412.25l6.23-0.69c-0.38-3.42-3.51-5.92-6.93-5.54c-3.42,0.38-5.92,3.51-5.54,6.92L244.36,412.25z"/>
	<path class="st13" d="M256.89,410.48l9.38-1.04c-0.57-5.15-5.28-8.91-10.43-8.34c-5.15,0.57-8.91,5.28-8.34,10.43L256.89,410.48z"
		/>
	<path class="st13" d="M335.25,397.64l5.19-0.87c-0.48-2.85-3.21-4.8-6.06-4.32c-2.85,0.48-4.8,3.21-4.32,6.06L335.25,397.64z"/>
	<path class="st14" d="M403.51,387.29C366.46,430.57,311.44,458,250,458c-39.43,0-76.22-11.3-107.32-30.83L149,425L403.51,387.29z"
		/>
	<polygon class="st15" points="152,373 158,345 162,366 165,353 169,373 	"/>
	<polygon class="st15" points="290,373 294,354 298,373 	"/>
	<polygon class="st15" points="361,373 365,353 369,373 	"/>
</g>
<g id="Circle_Cutouts">
	<path class="st7" d="M425,155c-4-7-14-8-14-8l9-2C420,145,425.7,156.23,425,155z"/>
	<g>
		<circle class="st7" cx="75" cy="188" r="4"/>
		<circle class="st7" cx="196" cy="188" r="4"/>
		<path class="st16" d="M75,184"/>
		<path class="st16" d="M197,184.5"/>
		<rect x="75" y="184" class="st7" width="121" height="8"/>
	</g>
	<g>
		<ellipse class="st7" cx="151.19" cy="225.39" rx="3.81" ry="5.61"/>
		<path class="st16" d="M35.81,219.78"/>
		<path class="st16" d="M152.14,220.48"/>
		<g>
			<rect x="47" y="219.78" class="st7" width="104.19" height="11.22"/>
			<path class="st7" d="M59.98,219.78C57.95,219.55,49.5,214.5,52,205l-4.5,14.5L59.98,219.78z"/>
			<path class="st7" d="M46.1,243.09c-0.4-2,1.84-11.58,11.65-12.09l-15.18,0.12L46.1,243.09z"/>
		</g>
	</g>
	<g>
		<ellipse class="st7" cx="349.67" cy="143.45" rx="2.33" ry="3.43"/>
		<path class="st16" d="M420.1,140.02"/>
		<path class="st16" d="M349.09,140.45"/>
		<g>
			
				<rect x="349.67" y="140.02" transform="matrix(-1 -1.224647e-16 1.224647e-16 -1 762.9413 286.8906)" class="st7" width="63.6" height="6.85"/>
		</g>
	</g>
	<path class="st7" d="M410,128c4,4,0,11-4.23,12.02C401.98,140.93,418,140,418,140L410,128z"/>
	<ellipse class="st7" cx="326.3" cy="193.11" rx="5.36" ry="7.88"/>
	<path class="st16" d="M488.35,185.22"/>
	<path class="st16" d="M324.97,186.21"/>
	<g>
		
			<rect x="326.3" y="185.22" transform="matrix(-1 -1.224647e-16 1.224647e-16 -1 749.3044 386.2141)" class="st7" width="96.7" height="15.77"/>
	</g>
	<path class="st7" d="M435,174c1,10-7,11-12,11c-3,0,0,16,0,16c20,0,25,15,25,15C444.37,197.49,442.84,183.85,435,174z"/>
	<polygon class="st7" points="418,140 424,147 407.61,146.87 407.61,139.5 	"/>
</g>
</svg>
